<svg width="584" height="52" viewBox="0 0 584 52" fill="none" xmlns="http://www.w3.org/2000/svg">
<path d="M175.5 46.7875C175.5 49.4047 173.445 51.5001 170.932 51.5001H5.07501C2.56242 51.5001 0.500244 49.4038 0.500244 46.7875V5.21939C0.500244 2.60359 2.56335 0.500061 5.07501 0.500061H170.931C173.444 0.500061 175.499 2.60256 175.499 5.21939L175.5 46.7875Z" fill="black" stroke="#A6A6A6"/>
<path d="M63.8655 18.1407C66.1213 18.1407 67.4514 16.7872 67.4514 14.502V13.6993H64.012V14.6251H66.3967V14.7774C66.3967 16.1954 65.3655 17.168 63.8655 17.168C62.1428 17.168 61.0706 15.8555 61.0706 13.7286V13.7227C61.0706 11.6368 62.1252 10.377 63.8655 10.377C65.0549 10.377 65.8752 10.9922 66.2678 12.0645L66.2913 12.129H67.3987L67.3694 12.0176C66.9768 10.5235 65.8108 9.40436 63.8655 9.40436C61.5042 9.40436 59.9924 11.0801 59.9924 13.7227V13.7286C59.9924 16.4239 61.5042 18.1407 63.8655 18.1407ZM71.1721 18.1172C72.8538 18.1172 73.9905 16.8985 73.9905 14.9532V14.9415C73.9905 12.9962 72.8479 11.7891 71.1663 11.7891C69.4846 11.7891 68.3479 13.002 68.3479 14.9415V14.9532C68.3479 16.8926 69.4788 18.1172 71.1721 18.1172ZM71.178 17.2149C70.0999 17.2149 69.3909 16.3887 69.3909 14.9532V14.9415C69.3909 13.5176 70.1057 12.6915 71.1663 12.6915C72.2444 12.6915 72.9475 13.5118 72.9475 14.9415V14.9532C72.9475 16.3829 72.2502 17.2149 71.178 17.2149ZM79.4631 18.1172C79.6624 18.1172 79.8792 18.0938 80.0081 18.0762V17.2501C79.9202 17.2559 79.803 17.2735 79.6799 17.2735C79.135 17.2735 78.8479 17.0919 78.8479 16.4415V12.7501H80.0081V11.9063H78.8479V10.2598H77.7932V11.9063H76.9026V12.7501H77.7932V16.4473C77.7932 17.6133 78.344 18.1172 79.4631 18.1172ZM83.4534 18.1172C85.135 18.1172 86.2717 16.8985 86.2717 14.9532V14.9415C86.2717 12.9962 85.1292 11.7891 83.4475 11.7891C81.7659 11.7891 80.6292 13.002 80.6292 14.9415V14.9532C80.6292 16.8926 81.76 18.1172 83.4534 18.1172ZM83.4592 17.2149C82.3811 17.2149 81.6721 16.3887 81.6721 14.9532V14.9415C81.6721 13.5176 82.387 12.6915 83.4475 12.6915C84.5256 12.6915 85.2288 13.5118 85.2288 14.9415V14.9532C85.2288 16.3829 84.5315 17.2149 83.4592 17.2149ZM91.7444 18.1172C91.9436 18.1172 92.1604 18.0938 92.2893 18.0762V17.2501C92.2014 17.2559 92.0842 17.2735 91.9612 17.2735C91.4163 17.2735 91.1292 17.0919 91.1292 16.4415V12.7501H92.2893V11.9063H91.1292V10.2598H90.0745V11.9063H89.1838V12.7501H90.0745V16.4473C90.0745 17.6133 90.6252 18.1172 91.7444 18.1172ZM93.4377 18.0001H94.4573V14.4434C94.4573 13.4063 95.0842 12.6915 96.0276 12.6915C96.9768 12.6915 97.5393 13.3419 97.5393 14.4434V18.0001H98.5588V14.2676C98.5588 12.7911 97.6741 11.7891 96.3792 11.7891C95.4709 11.7891 94.8088 12.1934 94.4807 12.879H94.4573V9.54498H93.4377V18.0001ZM102.362 18.1172C103.692 18.1172 104.688 17.3204 104.887 16.3126L104.899 16.254H103.897L103.879 16.3067C103.703 16.8282 103.158 17.2149 102.385 17.2149C101.301 17.2149 100.61 16.4825 100.586 15.2286H104.975V14.8536C104.975 13.0255 103.961 11.7891 102.297 11.7891C100.633 11.7891 99.5549 13.084 99.5549 14.9708V14.9766C99.5549 16.8926 100.61 18.1172 102.362 18.1172ZM102.291 12.6915C103.182 12.6915 103.838 13.2481 103.938 14.4317H100.604C100.715 13.295 101.406 12.6915 102.291 12.6915Z" fill="white"/>
<path d="M64.4807 41.0001H67.9377L71.0549 29.668H71.1252L74.2307 41.0001H77.6877L82.176 24.0899H78.5081L75.8245 36.2071H75.7542L72.637 24.0899H69.5315L66.4143 36.2071H66.344L63.6721 24.0899H60.0042L64.4807 41.0001ZM88.1057 41.2579C91.6917 41.2579 93.426 39.1368 93.8127 37.2852L93.8479 37.1563H90.7073L90.6838 37.2266C90.4377 37.9297 89.5823 38.7032 88.176 38.7032C86.4299 38.7032 85.3401 37.5313 85.3049 35.5274H93.9534V34.4727C93.9534 30.6758 91.6448 28.1797 87.9651 28.1797C84.2854 28.1797 81.9299 30.7344 81.9299 34.7305V34.7422C81.9299 38.7618 84.262 41.2579 88.1057 41.2579ZM88.0237 30.7344C89.4417 30.7344 90.4612 31.6368 90.6721 33.3712H85.3401C85.5627 31.6719 86.6174 30.7344 88.0237 30.7344ZM103.164 41.2579C106.328 41.2579 108.285 38.7969 108.285 34.7188V34.7071C108.285 30.6172 106.328 28.1797 103.176 28.1797C101.383 28.1797 99.9885 29.0938 99.2971 30.6172H99.2268V24.0899H95.8049V41.0001H99.2268V38.8555H99.2971C99.9768 40.3438 101.36 41.2579 103.164 41.2579ZM102.028 38.4219C100.364 38.4219 99.2268 36.9922 99.2268 34.7188V34.7071C99.2268 32.4454 100.375 31.0157 102.028 31.0157C103.727 31.0157 104.805 32.4102 104.805 34.7071V34.7188C104.805 37.004 103.727 38.4219 102.028 38.4219ZM114.016 41.0001H117.731L119.008 36.8985H124.985L126.262 41.0001H129.977L124.082 24.0899H119.922L114.016 41.0001ZM121.961 27.3712H122.031L124.164 34.2501H119.828L121.961 27.3712ZM131.418 45.1016H134.84V38.8555H134.91C135.59 40.3438 137.008 41.2579 138.801 41.2579C141.942 41.2579 143.887 38.7969 143.887 34.7188V34.7071C143.887 30.6172 141.942 28.1797 138.754 28.1797C136.973 28.1797 135.602 29.1055 134.922 30.629H134.84V28.4376H131.418V45.1016ZM137.629 38.4219C135.965 38.4219 134.828 36.9922 134.828 34.7305V34.7188C134.828 32.4454 135.965 31.0157 137.629 31.0157C139.328 31.0157 140.406 32.4102 140.406 34.7071V34.7188C140.406 37.004 139.328 38.4219 137.629 38.4219ZM145.668 45.1016H149.09V38.8555H149.16C149.84 40.3438 151.258 41.2579 153.051 41.2579C156.192 41.2579 158.137 38.7969 158.137 34.7188V34.7071C158.137 30.6172 156.192 28.1797 153.004 28.1797C151.223 28.1797 149.852 29.1055 149.172 30.629H149.09V28.4376H145.668V45.1016ZM151.879 38.4219C150.215 38.4219 149.078 36.9922 149.078 34.7305V34.7188C149.078 32.4454 150.215 31.0157 151.879 31.0157C153.578 31.0157 154.656 32.4102 154.656 34.7071V34.7188C154.656 37.004 153.578 38.4219 151.879 38.4219Z" fill="white"/>
<g clip-path="url(#clip0_2_1414)">
<path d="M35 10.0833C26.49 10.0833 19.5833 16.99 19.5833 25.5C19.5833 34.01 26.49 40.9167 35 40.9167C43.51 40.9167 50.4167 34.01 50.4167 25.5C50.4167 16.99 43.51 10.0833 35 10.0833ZM33.4583 37.7254C27.3688 36.97 22.6667 31.79 22.6667 25.5C22.6667 24.5442 22.79 23.6346 22.9904 22.7404L30.375 30.125V31.6667C30.375 33.3625 31.7625 34.75 33.4583 34.75V37.7254ZM44.0958 33.8096C43.695 32.5608 42.5542 31.6667 41.1667 31.6667H39.625V27.0417C39.625 26.1938 38.9313 25.5 38.0833 25.5H28.8333V22.4167H31.9167C32.7646 22.4167 33.4583 21.7229 33.4583 20.875V17.7917H36.5417C38.2375 17.7917 39.625 16.4042 39.625 14.7083V14.0763C44.1421 15.9108 47.3333 20.3354 47.3333 25.5C47.3333 28.7067 46.1 31.6204 44.0958 33.8096Z" fill="white"/>
</g>
<g opacity="0.3">
<path d="M373.333 52H206.667C203.002 52 200 49.0734 200 45.5V6.5C200 2.92663 203.002 2.74817e-06 206.667 2.74817e-06H373.333C376.998 2.74817e-06 380 2.92663 380 6.5V45.5C380 49.0734 376.998 52 373.333 52Z" fill="black"/>
<path d="M373.333 1.04162C376.42 1.04162 378.932 3.4905 378.932 6.5V45.5C378.932 48.5095 376.42 50.9584 373.333 50.9584H206.667C203.58 50.9584 201.068 48.5095 201.068 45.5V6.5C201.068 3.4905 203.58 1.04162 206.667 1.04162H373.333ZM373.333 2.74817e-06H206.667C203.002 2.74817e-06 200 2.92663 200 6.5V45.5C200 49.0734 203.002 52 206.667 52H373.333C376.998 52 380 49.0734 380 45.5V6.5C380 2.92663 376.998 2.74817e-06 373.333 2.74817e-06Z" fill="#A6A6A6"/>
<path d="M213.913 9.80038C213.522 10.2001 213.295 10.8225 213.295 11.6285V40.378C213.295 41.184 213.522 41.8064 213.913 42.2061L214.01 42.2939L230.533 26.1901V25.8099L214.01 9.70614L213.913 9.80038Z" fill="url(#paint0_linear_2_1414)"/>
<path d="M236.035 31.5607L230.533 26.1901V25.8099L236.042 20.4392L236.165 20.5091L242.688 24.128C244.55 25.155 244.55 26.845 242.688 27.8785L236.165 31.4909L236.035 31.5607Z" fill="url(#paint1_linear_2_1414)"/>
<path d="M236.165 31.4909L230.533 26L213.913 42.2061C214.532 42.8399 215.54 42.9162 216.687 42.2825L236.165 31.4909Z" fill="url(#paint2_linear_2_1414)"/>
<path d="M236.165 20.5091L216.687 9.71751C215.54 9.09025 214.532 9.16663 213.913 9.80038L230.533 26L236.165 20.5091Z" fill="url(#paint3_linear_2_1414)"/>
<path d="M263.223 13.3169C263.223 14.4024 262.89 15.2718 262.233 15.9201C261.478 16.6887 260.495 17.0755 259.29 17.0755C258.138 17.0755 257.155 16.6822 256.348 15.9071C255.54 15.1206 255.137 14.1554 255.137 13C255.137 11.8446 255.54 10.8794 256.348 10.0994C257.155 9.31775 258.138 8.9245 259.29 8.9245C259.863 8.9245 260.41 9.03987 260.932 9.25437C261.452 9.4705 261.875 9.763 262.182 10.1237L261.485 10.8095C260.95 10.1936 260.222 9.88975 259.29 9.88975C258.45 9.88975 257.722 10.1757 257.103 10.7526C256.492 11.3311 256.185 12.0802 256.185 13C256.185 13.9197 256.492 14.6754 257.103 15.2539C257.722 15.8242 258.45 16.1167 259.29 16.1167C260.182 16.1167 260.932 15.8242 261.523 15.2474C261.913 14.8655 262.135 14.339 262.193 13.6662H259.29V12.727H263.163C263.21 12.9301 263.223 13.1267 263.223 13.3169Z" fill="white" stroke="white" stroke-width="0.16" stroke-miterlimit="10"/>
<path d="M269.368 10.0604H265.73V12.5304H269.01V13.4696H265.73V15.9396H269.368V16.8967H264.7V9.10324H269.368V10.0604Z" fill="white" stroke="white" stroke-width="0.16" stroke-miterlimit="10"/>
<path d="M273.705 16.8967H272.675V10.0604H270.443V9.10324H275.938V10.0604H273.705V16.8967Z" fill="white" stroke="white" stroke-width="0.16" stroke-miterlimit="10"/>
<path d="M279.915 16.8967V9.10324H280.943V16.8967H279.915Z" fill="white" stroke="white" stroke-width="0.16" stroke-miterlimit="10"/>
<path d="M285.502 16.8967H284.48V10.0604H282.24V9.10324H287.742V10.0604H285.502V16.8967Z" fill="white" stroke="white" stroke-width="0.16" stroke-miterlimit="10"/>
<path d="M298.145 15.8941C297.357 16.6822 296.38 17.0755 295.215 17.0755C294.043 17.0755 293.067 16.6822 292.278 15.8941C291.492 15.1076 291.1 14.1424 291.1 13C291.1 11.8576 291.492 10.8924 292.278 10.1059C293.067 9.31775 294.043 8.9245 295.215 8.9245C296.373 8.9245 297.35 9.31775 298.138 10.1124C298.932 10.9054 299.323 11.8641 299.323 13C299.323 14.1424 298.932 15.1076 298.145 15.8941ZM293.04 15.2409C293.633 15.8242 294.355 16.1167 295.215 16.1167C296.068 16.1167 296.797 15.8242 297.383 15.2409C297.975 14.6575 298.275 13.9084 298.275 13C298.275 12.0916 297.975 11.3425 297.383 10.7591C296.797 10.1758 296.068 9.88325 295.215 9.88325C294.355 9.88325 293.633 10.1758 293.04 10.7591C292.448 11.3425 292.148 12.0916 292.148 13C292.148 13.9084 292.448 14.6575 293.04 15.2409Z" fill="white" stroke="white" stroke-width="0.16" stroke-miterlimit="10"/>
<path d="M300.768 16.8967V9.10324H302.018L305.905 15.1645H305.95L305.905 13.6662V9.10324H306.933V16.8967H305.86L301.79 10.5365H301.745L301.79 12.0412V16.8967H300.768Z" fill="white" stroke="white" stroke-width="0.16" stroke-miterlimit="10"/>
<path d="M290.847 28.2783C287.715 28.2783 285.157 30.602 285.157 33.8082C285.157 36.9883 287.715 39.3364 290.847 39.3364C293.985 39.3364 296.543 36.9883 296.543 33.8082C296.543 30.602 293.985 28.2783 290.847 28.2783ZM290.847 37.1589C289.128 37.1589 287.65 35.776 287.65 33.8082C287.65 31.8143 289.128 30.4558 290.847 30.4558C292.565 30.4558 294.05 31.8143 294.05 33.8082C294.05 35.776 292.565 37.1589 290.847 37.1589ZM278.432 28.2783C275.293 28.2783 272.742 30.602 272.742 33.8082C272.742 36.9883 275.293 39.3364 278.432 39.3364C281.568 39.3364 284.122 36.9883 284.122 33.8082C284.122 30.602 281.568 28.2783 278.432 28.2783ZM278.432 37.1589C276.712 37.1589 275.228 35.776 275.228 33.8082C275.228 31.8143 276.712 30.4558 278.432 30.4558C280.15 30.4558 281.628 31.8143 281.628 33.8082C281.628 35.776 280.15 37.1589 278.432 37.1589ZM263.658 29.9732V32.3229H269.413C269.245 33.6359 268.795 34.6012 268.105 35.2739C267.265 36.0864 265.957 36.9883 263.658 36.9883C260.117 36.9883 257.343 34.2014 257.343 30.7483C257.343 27.2952 260.117 24.5083 263.658 24.5083C265.573 24.5083 266.967 25.2379 267.995 26.1837L269.693 24.5278C268.255 23.1888 266.342 22.1602 263.658 22.1602C258.802 22.1602 254.72 26.013 254.72 30.7483C254.72 35.4835 258.802 39.3364 263.658 39.3364C266.283 39.3364 268.255 38.4979 269.805 36.9249C271.393 35.3763 271.888 33.1988 271.888 31.4405C271.888 30.8945 271.842 30.3924 271.758 29.9732H263.658ZM324.068 31.7948C323.6 30.5582 322.155 28.2783 319.212 28.2783C316.295 28.2783 313.867 30.5192 313.867 33.8082C313.867 36.9054 316.27 39.3364 319.492 39.3364C322.097 39.3364 323.6 37.7878 324.218 36.8859L322.285 35.6298C321.64 36.5495 320.762 37.1589 319.492 37.1589C318.23 37.1589 317.325 36.595 316.745 35.4835L324.33 32.4237L324.068 31.7948ZM316.335 33.6359C316.27 31.5039 318.033 30.4119 319.297 30.4119C320.287 30.4119 321.127 30.8945 321.407 31.5852L316.335 33.6359ZM310.17 39H312.663V22.75H310.17V39ZM306.087 29.51H306.003C305.443 28.8633 304.375 28.2783 303.022 28.2783C300.182 28.2783 297.585 30.7093 297.585 33.826C297.585 36.9249 300.182 39.3364 303.022 39.3364C304.375 39.3364 305.443 38.7465 306.003 38.0803H306.087V38.8733C306.087 40.9874 304.928 42.1233 303.06 42.1233C301.537 42.1233 300.592 41.0508 300.202 40.1489L298.033 41.0313C298.658 42.497 300.313 44.3008 303.06 44.3008C305.983 44.3008 308.45 42.6238 308.45 38.5434V28.6147H306.087V29.51ZM303.235 37.1589C301.517 37.1589 300.078 35.7565 300.078 33.826C300.078 31.8777 301.517 30.4558 303.235 30.4558C304.928 30.4558 306.263 31.8777 306.263 33.826C306.263 35.7565 304.928 37.1589 303.235 37.1589ZM335.742 22.75H329.778V39H332.265V32.8429H335.742C338.503 32.8429 341.212 30.8945 341.212 27.7957C341.212 24.6984 338.497 22.75 335.742 22.75ZM335.807 30.5825H332.265V25.0104H335.807C337.663 25.0104 338.723 26.5135 338.723 27.7957C338.723 29.0534 337.663 30.5825 335.807 30.5825ZM351.178 28.2474C349.382 28.2474 347.513 29.0209 346.745 30.7353L348.952 31.6372C349.427 30.7353 350.3 30.4428 351.223 30.4428C352.513 30.4428 353.822 31.1984 353.842 32.5325V32.7032C353.392 32.4497 352.428 32.0743 351.243 32.0743C348.867 32.0743 346.445 33.3499 346.445 35.7305C346.445 37.908 348.392 39.3104 350.58 39.3104C352.253 39.3104 353.177 38.5743 353.757 37.7179H353.842V38.974H356.243V32.7405C356.243 29.8594 354.037 28.2474 351.178 28.2474ZM350.878 37.1524C350.065 37.1524 348.932 36.7592 348.932 35.776C348.932 34.5183 350.345 34.0357 351.568 34.0357C352.663 34.0357 353.177 34.2713 353.842 34.5817C353.647 36.0864 352.318 37.1524 350.878 37.1524ZM364.993 28.6033L362.135 35.6477H362.05L359.095 28.6033H356.413L360.853 38.4475L358.32 43.9254H360.918L367.76 28.6033H364.993ZM342.578 39H345.072V22.75H342.578V39Z" fill="white"/>
</g>
<g opacity="0.3">
<path d="M583 46.0031C583 48.7742 580.709 51.0189 577.874 51.0189H410.132C407.3 51.0189 405 48.7742 405 46.0031V6.00351C405 3.23368 407.3 0.98114 410.132 0.98114H577.873C580.709 0.98114 582.999 3.23368 582.999 6.00351L583 46.0031Z" fill="black"/>
<path d="M577.333 1.04162C580.42 1.04162 582.932 3.4905 582.932 6.5V45.5C582.932 48.5095 580.42 50.9584 577.333 50.9584H410.667C407.58 50.9584 405.068 48.5095 405.068 45.5V6.5C405.068 3.4905 407.58 1.04162 410.667 1.04162H577.333ZM577.333 2.74817e-06H410.667C407.002 2.74817e-06 404 2.92663 404 6.5V45.5C404 49.0734 407.002 52 410.667 52H577.333C580.998 52 584 49.0734 584 45.5V6.5C584 2.92663 580.998 2.74817e-06 577.333 2.74817e-06Z" fill="#A6A6A6"/>
<path d="M444.171 25.7192C444.132 21.5293 447.689 19.4909 447.852 19.396C445.837 16.5321 442.715 16.1408 441.617 16.1096C438.995 15.8405 436.451 17.6397 435.115 17.6397C433.752 17.6397 431.695 16.1356 429.477 16.1798C426.624 16.2227 423.955 17.8334 422.491 20.3346C419.469 25.4345 421.723 32.929 424.617 37.0513C426.065 39.0702 427.757 41.3244 429.972 41.2451C432.139 41.158 432.948 39.8983 435.563 39.8983C438.153 39.8983 438.913 41.2451 441.172 41.1944C443.497 41.158 444.961 39.1664 446.359 37.1293C448.032 34.8153 448.704 32.5364 448.731 32.4194C448.676 32.4012 444.215 30.7411 444.171 25.7192Z" fill="white"/>
<path d="M439.904 13.3978C441.069 11.9769 441.867 10.0438 441.645 8.08209C439.959 8.15489 437.849 9.21959 436.635 10.6093C435.56 11.8339 434.6 13.8411 434.848 15.7287C436.743 15.8665 438.688 14.7966 439.904 13.3978Z" fill="white"/>
<path d="M469.4 13.0117C469.4 14.5418 468.929 15.6936 467.989 16.4671C467.119 17.1808 465.881 17.5383 464.279 17.5383C463.484 17.5383 462.804 17.5045 462.235 17.4369V9.07661C462.977 8.95961 463.777 8.89981 464.641 8.89981C466.168 8.89981 467.319 9.22351 468.095 9.87091C468.964 10.6028 469.4 11.6493 469.4 13.0117ZM467.927 13.0494C467.927 12.0575 467.657 11.297 467.119 10.7666C466.58 10.2375 465.793 9.97231 464.757 9.97231C464.317 9.97231 463.943 10.0009 463.632 10.0607V16.4164C463.804 16.4424 464.119 16.4541 464.576 16.4541C465.645 16.4541 466.471 16.1642 467.052 15.5844C467.633 15.0046 467.927 14.1596 467.927 13.0494Z" fill="white"/>
<path d="M477.212 14.3481C477.212 15.2906 476.936 16.0628 476.384 16.6686C475.805 17.2913 475.039 17.602 474.081 17.602C473.159 17.602 472.424 17.3043 471.876 16.7063C471.329 16.1096 471.056 15.3569 471.056 14.4495C471.056 13.5005 471.337 12.7218 471.903 12.1173C472.468 11.5128 473.228 11.2099 474.185 11.2099C475.108 11.2099 475.849 11.5076 476.411 12.1043C476.944 12.6841 477.212 13.4329 477.212 14.3481ZM475.763 14.3923C475.763 13.8268 475.637 13.3419 475.388 12.9376C475.095 12.4488 474.677 12.2044 474.135 12.2044C473.573 12.2044 473.147 12.4488 472.853 12.9376C472.603 13.3419 472.479 13.8346 472.479 14.417C472.479 14.9825 472.604 15.4674 472.853 15.8717C473.156 16.3605 473.577 16.6049 474.121 16.6049C474.655 16.6049 475.073 16.3566 475.375 15.8587C475.633 15.4466 475.763 14.9578 475.763 14.3923Z" fill="white"/>
<path d="M487.687 11.3347L485.72 17.4629H484.44L483.625 14.8018C483.419 14.1375 483.251 13.4771 483.12 12.8219H483.095C482.973 13.4953 482.805 14.1544 482.589 14.8018L481.724 17.4629H480.429L478.58 11.3347H480.016L480.727 14.248C480.899 14.937 481.04 15.5935 481.153 16.2149H481.179C481.283 15.7027 481.455 15.0501 481.697 14.261L482.589 11.336H483.728L484.583 14.1986C484.789 14.8967 484.957 15.5688 485.087 16.2162H485.125C485.22 15.5857 485.363 14.9136 485.552 14.1986L486.315 11.336H487.687V11.3347Z" fill="white"/>
<path d="M494.931 17.4629H493.533V13.9529C493.533 12.8713 493.112 12.3305 492.267 12.3305C491.852 12.3305 491.517 12.4787 491.257 12.7764C491 13.0741 490.869 13.4251 490.869 13.8268V17.4616H489.472V13.0858C489.472 12.5476 489.455 11.9639 489.421 11.3321H490.649L490.715 12.2902H490.753C490.916 11.9925 491.159 11.7468 491.477 11.5505C491.856 11.3217 492.28 11.206 492.744 11.206C493.331 11.206 493.819 11.3906 494.207 11.7611C494.689 12.2148 494.931 12.8921 494.931 13.7917V17.4629Z" fill="white"/>
<path d="M498.784 17.4629H497.388V8.5228H498.784V17.4629Z" fill="white"/>
<path d="M507.011 14.3481C507.011 15.2906 506.735 16.0628 506.183 16.6686C505.604 17.2913 504.836 17.602 503.88 17.602C502.956 17.602 502.221 17.3043 501.675 16.7063C501.128 16.1096 500.855 15.3569 500.855 14.4495C500.855 13.5005 501.136 12.7218 501.701 12.1173C502.267 11.5128 503.027 11.2099 503.983 11.2099C504.907 11.2099 505.647 11.5076 506.209 12.1043C506.743 12.6841 507.011 13.4329 507.011 14.3481ZM505.56 14.3923C505.56 13.8268 505.435 13.3419 505.185 12.9376C504.893 12.4488 504.475 12.2044 503.933 12.2044C503.371 12.2044 502.944 12.4488 502.652 12.9376C502.401 13.3419 502.277 13.8346 502.277 14.417C502.277 14.9825 502.403 15.4674 502.652 15.8717C502.955 16.3605 503.376 16.6049 503.92 16.6049C504.453 16.6049 504.871 16.3566 505.172 15.8587C505.432 15.4466 505.56 14.9578 505.56 14.3923Z" fill="white"/>
<path d="M513.773 17.4629H512.519L512.415 16.757H512.376C511.947 17.3199 511.335 17.602 510.54 17.602C509.947 17.602 509.467 17.4161 509.105 17.0469C508.777 16.7115 508.613 16.2942 508.613 15.7989C508.613 15.0501 508.933 14.4794 509.577 14.0842C510.22 13.689 511.124 13.4953 512.288 13.5044V13.39C512.288 12.5827 511.853 12.1797 510.983 12.1797C510.363 12.1797 509.816 12.3318 509.344 12.6334L509.06 11.739C509.644 11.3867 510.365 11.2099 511.216 11.2099C512.859 11.2099 513.683 12.0549 513.683 13.7449V16.0017C513.683 16.614 513.713 17.1015 513.773 17.4629ZM512.323 15.3569V14.4118C510.781 14.3858 510.011 14.7979 510.011 15.6468C510.011 15.9666 510.099 16.2058 510.279 16.3657C510.459 16.5256 510.688 16.6049 510.961 16.6049C511.268 16.6049 511.555 16.51 511.816 16.3215C512.079 16.1317 512.24 15.8912 512.3 15.5961C512.315 15.5298 512.323 15.4492 512.323 15.3569Z" fill="white"/>
<path d="M521.713 17.4629H520.473L520.408 16.4788H520.369C519.973 17.2276 519.299 17.602 518.351 17.602C517.593 17.602 516.963 17.3121 516.463 16.7323C515.963 16.1525 515.713 15.3998 515.713 14.4755C515.713 13.4836 515.984 12.6802 516.528 12.0666C517.055 11.4946 517.7 11.2086 518.468 11.2086C519.312 11.2086 519.903 11.4855 520.239 12.0406H520.265V8.5228H521.664V15.8119C521.664 16.4086 521.68 16.9585 521.713 17.4629ZM520.265 14.8785V13.8567C520.265 13.6799 520.252 13.5369 520.227 13.4277C520.148 13.1001 519.979 12.8245 519.721 12.6022C519.461 12.3799 519.148 12.2681 518.787 12.2681C518.265 12.2681 517.857 12.4696 517.557 12.8739C517.26 13.2782 517.109 13.7943 517.109 14.4248C517.109 15.0306 517.252 15.522 517.539 15.9003C517.841 16.3033 518.249 16.5048 518.76 16.5048C519.219 16.5048 519.585 16.3371 519.864 16.0004C520.133 15.6897 520.265 15.3153 520.265 14.8785Z" fill="white"/>
<path d="M533.664 14.3481C533.664 15.2906 533.388 16.0628 532.836 16.6686C532.257 17.2913 531.492 17.602 530.533 17.602C529.612 17.602 528.877 17.3043 528.328 16.7063C527.781 16.1096 527.508 15.3569 527.508 14.4495C527.508 13.5005 527.789 12.7218 528.355 12.1173C528.92 11.5128 529.68 11.2099 530.639 11.2099C531.56 11.2099 532.303 11.5076 532.863 12.1043C533.396 12.6841 533.664 13.4329 533.664 14.3481ZM532.216 14.3923C532.216 13.8268 532.091 13.3419 531.841 12.9376C531.547 12.4488 531.131 12.2044 530.587 12.2044C530.027 12.2044 529.6 12.4488 529.305 12.9376C529.055 13.3419 528.931 13.8346 528.931 14.417C528.931 14.9825 529.056 15.4674 529.305 15.8717C529.608 16.3605 530.029 16.6049 530.573 16.6049C531.107 16.6049 531.527 16.3566 531.828 15.8587C532.085 15.4466 532.216 14.9578 532.216 14.3923Z" fill="white"/>
<path d="M541.177 17.4629H539.781V13.9529C539.781 12.8713 539.36 12.3305 538.513 12.3305C538.099 12.3305 537.764 12.4787 537.505 12.7764C537.247 13.0741 537.117 13.4251 537.117 13.8268V17.4616H535.719V13.0858C535.719 12.5476 535.703 11.9639 535.669 11.3321H536.896L536.961 12.2902H537C537.164 11.9925 537.407 11.7468 537.724 11.5505C538.104 11.3217 538.527 11.206 538.992 11.206C539.577 11.206 540.065 11.3906 540.453 11.7611C540.937 12.2148 541.177 12.8921 541.177 13.7917V17.4629Z" fill="white"/>
<path d="M550.581 12.3552H549.043V15.3322C549.043 16.0888 549.316 16.4671 549.857 16.4671C550.108 16.4671 550.316 16.4463 550.48 16.4034L550.516 17.4369C550.24 17.5383 549.877 17.589 549.431 17.589C548.879 17.589 548.449 17.4252 548.139 17.0976C547.827 16.77 547.672 16.2188 547.672 15.4453V12.3552H546.753V11.3347H547.672V10.2115L549.041 9.8085V11.3334H550.58V12.3552H550.581Z" fill="white"/>
<path d="M557.979 17.4629H556.58V13.9789C556.58 12.8804 556.159 12.3305 555.315 12.3305C554.667 12.3305 554.224 12.649 553.981 13.286C553.94 13.4199 553.916 13.5837 553.916 13.7761V17.4616H552.52V8.5228H553.916V12.2161H553.943C554.383 11.544 555.013 11.2086 555.831 11.2086C556.409 11.2086 556.888 11.3932 557.268 11.7637C557.741 12.2252 557.979 12.9116 557.979 13.819V17.4629Z" fill="white"/>
<path d="M565.609 14.1089C565.609 14.3533 565.591 14.5587 565.557 14.7264H561.367C561.385 15.3322 561.585 15.7937 561.973 16.1135C562.328 16.3995 562.785 16.5425 563.345 16.5425C563.965 16.5425 564.531 16.4463 565.04 16.2526L565.259 17.199C564.663 17.4512 563.961 17.5773 563.149 17.5773C562.176 17.5773 561.409 17.2978 560.855 16.7388C560.297 16.1798 560.021 15.4297 560.021 14.4885C560.021 13.5642 560.279 12.7946 560.797 12.181C561.339 11.5258 562.071 11.1982 562.995 11.1982C563.899 11.1982 564.585 11.5258 565.049 12.181C565.424 12.701 565.609 13.3445 565.609 14.1089ZM564.276 13.7566C564.287 13.3523 564.195 13.0039 564.005 12.7101C563.763 12.3318 563.393 12.142 562.893 12.142C562.437 12.142 562.065 12.3266 561.781 12.6971C561.549 12.9922 561.412 13.3445 561.367 13.7566H564.276Z" fill="white"/>
<path d="M475.527 40.9552H472.499L470.84 35.8735H465.075L463.495 40.9552H460.547L466.259 23.6548H469.787L475.527 40.9552ZM470.34 33.7415L468.84 29.224C468.681 28.7625 468.384 27.6757 467.945 25.9649H467.892C467.717 26.7007 467.436 27.7875 467.049 29.224L465.576 33.7415H470.34Z" fill="white"/>
<path d="M490.216 34.5644C490.216 36.686 489.628 38.363 488.452 39.5941C487.399 40.69 486.091 41.2373 484.529 41.2373C482.844 41.2373 481.633 40.6471 480.896 39.4667H480.843V46.0382H478V32.5871C478 31.2533 477.964 29.8844 477.895 28.4804H480.395L480.553 30.4577H480.607C481.555 28.9679 482.993 28.2243 484.924 28.2243C486.433 28.2243 487.693 28.8054 488.701 29.9689C489.712 31.1337 490.216 32.6651 490.216 34.5644ZM487.32 34.6658C487.32 33.4516 487.04 32.4506 486.477 31.6628C485.863 30.8412 485.037 30.4304 484.003 30.4304C483.301 30.4304 482.664 30.6592 482.095 31.1103C481.524 31.5653 481.151 32.1594 480.976 32.8952C480.888 33.2384 480.844 33.5192 480.844 33.7402V35.8202C480.844 36.7276 481.129 37.4933 481.7 38.1186C482.271 38.7439 483.012 39.0559 483.924 39.0559C484.995 39.0559 485.828 38.6529 486.424 37.8495C487.021 37.0448 487.32 35.984 487.32 34.6658Z" fill="white"/>
<path d="M504.932 34.5644C504.932 36.686 504.344 38.363 503.167 39.5941C502.115 40.69 500.807 41.2373 499.245 41.2373C497.56 41.2373 496.349 40.6471 495.613 39.4667H495.56V46.0382H492.717V32.5871C492.717 31.2533 492.681 29.8844 492.612 28.4804H495.112L495.271 30.4577H495.324C496.271 28.9679 497.709 28.2243 499.641 28.2243C501.149 28.2243 502.409 28.8054 503.42 29.9689C504.427 31.1337 504.932 32.6651 504.932 34.5644ZM502.036 34.6658C502.036 33.4516 501.755 32.4506 501.192 31.6628C500.577 30.8412 499.755 30.4304 498.719 30.4304C498.016 30.4304 497.38 30.6592 496.809 31.1103C496.239 31.5653 495.867 32.1594 495.692 32.8952C495.605 33.2384 495.56 33.5192 495.56 33.7402V35.8202C495.56 36.7276 495.845 37.4933 496.413 38.1186C496.984 38.7426 497.725 39.0559 498.64 39.0559C499.711 39.0559 500.544 38.6529 501.14 37.8495C501.737 37.0448 502.036 35.984 502.036 34.6658Z" fill="white"/>
<path d="M521.385 36.1036C521.385 37.5752 520.861 38.7725 519.809 39.6968C518.653 40.7069 517.044 41.2113 514.976 41.2113C513.067 41.2113 511.536 40.8525 510.377 40.1336L511.036 37.8235C512.284 38.5593 513.653 38.9285 515.145 38.9285C516.216 38.9285 517.049 38.6919 517.648 38.2213C518.244 37.7507 518.541 37.1189 518.541 36.3311C518.541 35.6291 518.296 35.0376 517.804 34.5579C517.315 34.0782 516.497 33.6323 515.356 33.2202C512.249 32.0905 510.697 30.4356 510.697 28.2594C510.697 26.8372 511.241 25.6711 512.331 24.7637C513.416 23.855 514.864 23.4013 516.675 23.4013C518.289 23.4013 519.631 23.6756 520.701 24.2229L519.991 26.4823C518.991 25.9519 517.86 25.6867 516.595 25.6867C515.595 25.6867 514.813 25.9272 514.253 26.4056C513.78 26.8333 513.543 27.3546 513.543 27.9721C513.543 28.6559 513.813 29.2214 514.357 29.666C514.831 30.0768 515.691 30.5214 516.939 31.0011C518.465 31.6004 519.587 32.3011 520.308 33.1045C521.027 33.9053 521.385 34.9076 521.385 36.1036Z" fill="white"/>
<path d="M530.784 30.5604H527.651V36.6171C527.651 38.1576 528.203 38.9272 529.309 38.9272C529.817 38.9272 530.239 38.8843 530.572 38.7985L530.651 40.9032C530.091 41.1073 529.353 41.21 528.44 41.21C527.317 41.21 526.44 40.8759 525.807 40.209C525.176 39.5408 524.859 38.4202 524.859 36.8459V30.5578H522.992V28.4778H524.859V26.1937L527.651 25.3721V28.4778H530.784V30.5604Z" fill="white"/>
<path d="M544.921 34.6151C544.921 36.5326 544.359 38.1069 543.236 39.338C542.059 40.6055 540.496 41.2373 538.548 41.2373C536.671 41.2373 535.176 40.6302 534.061 39.416C532.947 38.2018 532.389 36.6691 532.389 34.8218C532.389 32.8887 532.963 31.3053 534.113 30.0742C535.261 28.8418 536.811 28.2256 538.759 28.2256C540.636 28.2256 542.147 28.8327 543.287 30.0482C544.377 31.2273 544.921 32.7496 544.921 34.6151ZM541.972 34.7048C541.972 33.5543 541.72 32.5676 541.209 31.7447C540.613 30.7489 539.761 30.2523 538.657 30.2523C537.515 30.2523 536.647 30.7502 536.051 31.7447C535.54 32.5689 535.288 33.5712 535.288 34.7568C535.288 35.9073 535.54 36.894 536.051 37.7156C536.665 38.7114 537.524 39.208 538.632 39.208C539.717 39.208 540.569 38.701 541.184 37.6896C541.708 36.8511 541.972 35.854 541.972 34.7048Z" fill="white"/>
<path d="M554.161 30.9179C553.88 30.8672 553.58 30.8412 553.265 30.8412C552.265 30.8412 551.492 31.2091 550.948 31.9462C550.475 32.5962 550.237 33.4178 550.237 34.4097V40.9552H547.396L547.423 32.409C547.423 30.9712 547.387 29.6621 547.316 28.4817H549.792L549.896 30.8685H549.975C550.275 30.0482 550.748 29.3878 551.396 28.8925C552.029 28.4466 552.713 28.2243 553.451 28.2243C553.713 28.2243 553.951 28.2425 554.161 28.275V30.9179Z" fill="white"/>
<path d="M566.875 34.1276C566.875 34.6242 566.841 35.0428 566.771 35.3847H558.243C558.276 36.6171 558.688 37.5596 559.48 38.2096C560.199 38.7907 561.128 39.0819 562.269 39.0819C563.532 39.0819 564.684 38.8856 565.72 38.4917L566.165 40.4157C564.955 40.9305 563.525 41.1866 561.876 41.1866C559.892 41.1866 558.335 40.6172 557.201 39.4797C556.071 38.3422 555.504 36.8147 555.504 34.8985C555.504 33.0174 556.031 31.4509 557.085 30.2016C558.189 28.8678 559.681 28.2009 561.559 28.2009C563.403 28.2009 564.799 28.8678 565.747 30.2016C566.497 31.2611 566.875 32.5715 566.875 34.1276ZM564.164 33.4087C564.183 32.5871 563.997 31.8773 563.612 31.278C563.12 30.5071 562.364 30.1223 561.347 30.1223C560.417 30.1223 559.661 30.498 559.084 31.252C558.611 31.8513 558.329 32.5702 558.243 33.4074H564.164V33.4087Z" fill="white"/>
</g>
<defs>
<linearGradient id="paint0_linear_2_1414" x1="229.066" y1="40.6774" x2="207.256" y2="18.308" gradientUnits="userSpaceOnUse">
<stop stop-color="#00A0FF"/>
<stop offset="0.0066" stop-color="#00A1FF"/>
<stop offset="0.2601" stop-color="#00BEFF"/>
<stop offset="0.5122" stop-color="#00D2FF"/>
<stop offset="0.7604" stop-color="#00DFFF"/>
<stop offset="1" stop-color="#00E3FF"/>
</linearGradient>
<linearGradient id="paint1_linear_2_1414" x1="245.113" y1="25.9982" x2="212.85" y2="25.9982" gradientUnits="userSpaceOnUse">
<stop stop-color="#FFE000"/>
<stop offset="0.4087" stop-color="#FFBD00"/>
<stop offset="0.7754" stop-color="#FFA500"/>
<stop offset="1" stop-color="#FF9C00"/>
</linearGradient>
<linearGradient id="paint2_linear_2_1414" x1="233.103" y1="23.0151" x2="203.526" y2="-7.3196" gradientUnits="userSpaceOnUse">
<stop stop-color="#FF3A44"/>
<stop offset="1" stop-color="#C31162"/>
</linearGradient>
<linearGradient id="paint3_linear_2_1414" x1="209.73" y1="51.7709" x2="222.937" y2="38.2253" gradientUnits="userSpaceOnUse">
<stop stop-color="#32A071"/>
<stop offset="0.0685" stop-color="#2DA771"/>
<stop offset="0.4762" stop-color="#15CF74"/>
<stop offset="0.8009" stop-color="#06E775"/>
<stop offset="1" stop-color="#00F076"/>
</linearGradient>
<clipPath id="clip0_2_1414">
<rect width="37" height="37" fill="white" transform="translate(16.5 7)"/>
</clipPath>
</defs>
</svg>
