<svg width="590" height="410" viewBox="0 0 590 410" fill="none" xmlns="http://www.w3.org/2000/svg">
<rect width="590" height="410" rx="50" fill="white"/>
<path d="M148.818 127.727C148.818 132.803 147.856 137.121 145.932 140.682C144.023 144.242 141.417 146.962 138.114 148.841C134.826 150.705 131.129 151.636 127.023 151.636C122.886 151.636 119.174 150.697 115.886 148.818C112.598 146.939 110 144.22 108.091 140.659C106.182 137.098 105.227 132.788 105.227 127.727C105.227 122.652 106.182 118.333 108.091 114.773C110 111.212 112.598 108.5 115.886 106.636C119.174 104.758 122.886 103.818 127.023 103.818C131.129 103.818 134.826 104.758 138.114 106.636C141.417 108.5 144.023 111.212 145.932 114.773C147.856 118.333 148.818 122.652 148.818 127.727ZM138.841 127.727C138.841 124.439 138.348 121.667 137.364 119.409C136.394 117.152 135.023 115.439 133.25 114.273C131.477 113.106 129.402 112.523 127.023 112.523C124.644 112.523 122.568 113.106 120.795 114.273C119.023 115.439 117.644 117.152 116.659 119.409C115.689 121.667 115.205 124.439 115.205 127.727C115.205 131.015 115.689 133.788 116.659 136.045C117.644 138.303 119.023 140.015 120.795 141.182C122.568 142.348 124.644 142.932 127.023 142.932C129.402 142.932 131.477 142.348 133.25 141.182C135.023 140.015 136.394 138.303 137.364 136.045C138.348 133.788 138.841 131.015 138.841 127.727ZM184.949 103.273L187.903 109.591C186.919 110.409 185.828 111.015 184.631 111.409C183.434 111.788 182.002 112.038 180.335 112.159C178.684 112.28 176.669 112.364 174.29 112.409C171.593 112.439 169.396 112.871 167.699 113.705C166.002 114.538 164.714 115.848 163.835 117.636C162.956 119.409 162.381 121.727 162.108 124.591H162.449C163.494 122.455 164.964 120.803 166.858 119.636C168.767 118.47 171.123 117.886 173.926 117.886C176.896 117.886 179.494 118.538 181.722 119.841C183.964 121.144 185.706 123.015 186.949 125.455C188.191 127.894 188.812 130.818 188.812 134.227C188.812 137.773 188.116 140.856 186.722 143.477C185.343 146.083 183.381 148.106 180.835 149.545C178.29 150.97 175.259 151.682 171.744 151.682C168.214 151.682 165.169 150.939 162.608 149.455C160.063 147.97 158.093 145.78 156.699 142.886C155.32 139.992 154.631 136.432 154.631 132.205V129.341C154.631 120.932 156.267 114.697 159.54 110.636C162.813 106.576 167.623 104.515 173.972 104.455C175.699 104.424 177.259 104.417 178.653 104.432C180.047 104.447 181.267 104.379 182.312 104.227C183.373 104.076 184.252 103.758 184.949 103.273ZM171.79 144.182C173.275 144.182 174.547 143.795 175.608 143.023C176.684 142.25 177.509 141.144 178.085 139.705C178.676 138.265 178.972 136.545 178.972 134.545C178.972 132.561 178.676 130.879 178.085 129.5C177.509 128.106 176.684 127.045 175.608 126.318C174.532 125.591 173.244 125.227 171.744 125.227C170.623 125.227 169.616 125.432 168.722 125.841C167.828 126.25 167.063 126.856 166.426 127.659C165.805 128.447 165.32 129.424 164.972 130.591C164.638 131.742 164.472 133.061 164.472 134.545C164.472 137.53 165.116 139.886 166.403 141.614C167.706 143.326 169.502 144.182 171.79 144.182ZM215.875 140.295L225.33 116.091H232.693L219.08 151H212.648L199.352 116.091H206.693L215.875 140.295ZM204.489 116.091V151H195.239V116.091H204.489ZM227.739 151V116.091H236.875V151H227.739ZM260.273 151.682C256.682 151.682 253.591 150.955 251 149.5C248.424 148.03 246.439 145.955 245.045 143.273C243.652 140.576 242.955 137.386 242.955 133.705C242.955 130.114 243.652 126.962 245.045 124.25C246.439 121.538 248.402 119.424 250.932 117.909C253.477 116.394 256.462 115.636 259.886 115.636C262.189 115.636 264.333 116.008 266.318 116.75C268.318 117.477 270.061 118.576 271.545 120.045C273.045 121.515 274.212 123.364 275.045 125.591C275.879 127.803 276.295 130.394 276.295 133.364V136.023H246.818V130.023H267.182C267.182 128.629 266.879 127.394 266.273 126.318C265.667 125.242 264.826 124.402 263.75 123.795C262.689 123.174 261.455 122.864 260.045 122.864C258.576 122.864 257.273 123.205 256.136 123.886C255.015 124.553 254.136 125.455 253.5 126.591C252.864 127.712 252.538 128.962 252.523 130.341V136.045C252.523 137.773 252.841 139.265 253.477 140.523C254.129 141.78 255.045 142.75 256.227 143.432C257.409 144.114 258.811 144.455 260.432 144.455C261.508 144.455 262.492 144.303 263.386 144C264.28 143.697 265.045 143.242 265.682 142.636C266.318 142.03 266.803 141.288 267.136 140.409L276.091 141C275.636 143.152 274.705 145.03 273.295 146.636C271.902 148.227 270.098 149.47 267.886 150.364C265.689 151.242 263.152 151.682 260.273 151.682ZM306.909 129.682V137.295H288.682V129.682H306.909ZM291.864 116.091V151H282.614V116.091H291.864ZM312.977 116.091V151H303.795V116.091H312.977ZM329.739 138.227L342.307 116.091H351.852V151H342.625V128.795L330.102 151H320.489V116.091H329.739V138.227ZM359.614 151V116.091H374.5C378.803 116.091 382.205 116.909 384.705 118.545C387.205 120.182 388.455 122.508 388.455 125.523C388.455 127.417 387.75 128.992 386.341 130.25C384.932 131.508 382.977 132.356 380.477 132.795C382.568 132.947 384.348 133.424 385.818 134.227C387.303 135.015 388.432 136.038 389.205 137.295C389.992 138.553 390.386 139.947 390.386 141.477C390.386 143.462 389.856 145.167 388.795 146.591C387.75 148.015 386.212 149.106 384.182 149.864C382.167 150.621 379.705 151 376.795 151H359.614ZM368.636 143.75H376.795C378.144 143.75 379.197 143.432 379.955 142.795C380.727 142.144 381.114 141.258 381.114 140.136C381.114 138.894 380.727 137.917 379.955 137.205C379.197 136.492 378.144 136.136 376.795 136.136H368.636V143.75ZM368.636 130.455H374.705C375.674 130.455 376.5 130.318 377.182 130.045C377.879 129.758 378.409 129.348 378.773 128.818C379.152 128.288 379.341 127.659 379.341 126.932C379.341 125.856 378.909 125.015 378.045 124.409C377.182 123.803 376 123.5 374.5 123.5H368.636V130.455ZM406.443 151.659C404.216 151.659 402.231 151.273 400.489 150.5C398.746 149.712 397.367 148.553 396.352 147.023C395.352 145.477 394.852 143.553 394.852 141.25C394.852 139.311 395.208 137.682 395.92 136.364C396.633 135.045 397.602 133.985 398.83 133.182C400.057 132.379 401.451 131.773 403.011 131.364C404.587 130.955 406.239 130.667 407.966 130.5C409.996 130.288 411.633 130.091 412.875 129.909C414.117 129.712 415.019 129.424 415.58 129.045C416.14 128.667 416.42 128.106 416.42 127.364V127.227C416.42 125.788 415.966 124.674 415.057 123.886C414.163 123.098 412.89 122.705 411.239 122.705C409.496 122.705 408.11 123.091 407.08 123.864C406.049 124.621 405.367 125.576 405.034 126.727L396.08 126C396.534 123.879 397.428 122.045 398.761 120.5C400.095 118.939 401.814 117.742 403.92 116.909C406.042 116.061 408.496 115.636 411.284 115.636C413.223 115.636 415.08 115.864 416.852 116.318C418.64 116.773 420.223 117.477 421.602 118.432C422.996 119.386 424.095 120.614 424.898 122.114C425.701 123.598 426.102 125.379 426.102 127.455V151H416.92V146.159H416.648C416.087 147.25 415.337 148.212 414.398 149.045C413.458 149.864 412.33 150.508 411.011 150.977C409.693 151.432 408.17 151.659 406.443 151.659ZM409.216 144.977C410.64 144.977 411.898 144.697 412.989 144.136C414.08 143.561 414.936 142.788 415.557 141.818C416.178 140.848 416.489 139.75 416.489 138.523V134.818C416.186 135.015 415.769 135.197 415.239 135.364C414.723 135.515 414.14 135.659 413.489 135.795C412.837 135.917 412.186 136.03 411.534 136.136C410.883 136.227 410.292 136.311 409.761 136.386C408.625 136.553 407.633 136.818 406.784 137.182C405.936 137.545 405.277 138.038 404.807 138.659C404.337 139.265 404.102 140.023 404.102 140.932C404.102 142.25 404.58 143.258 405.534 143.955C406.504 144.636 407.731 144.977 409.216 144.977ZM442.864 138.227L455.432 116.091H464.977V151H455.75V128.795L443.227 151H433.614V116.091H442.864V138.227ZM453.773 103.909H460.523C460.508 106.667 459.485 108.886 457.455 110.568C455.439 112.25 452.712 113.091 449.273 113.091C445.818 113.091 443.083 112.25 441.068 110.568C439.053 108.886 438.045 106.667 438.045 103.909H444.75C444.735 104.955 445.068 105.894 445.75 106.727C446.447 107.561 447.621 107.977 449.273 107.977C450.879 107.977 452.03 107.568 452.727 106.75C453.424 105.932 453.773 104.985 453.773 103.909ZM478.398 151.591C476.898 151.591 475.61 151.061 474.534 150C473.473 148.924 472.943 147.636 472.943 146.136C472.943 144.652 473.473 143.379 474.534 142.318C475.61 141.258 476.898 140.727 478.398 140.727C479.852 140.727 481.125 141.258 482.216 142.318C483.307 143.379 483.852 144.652 483.852 146.136C483.852 147.136 483.595 148.053 483.08 148.886C482.58 149.705 481.92 150.364 481.102 150.864C480.284 151.348 479.383 151.591 478.398 151.591Z" fill="black" fill-opacity="0.5"/>
<path d="M145.614 181.455V228H135.886V189.455H117.068V228H107.341V181.455H145.614ZM170.574 228.682C167.044 228.682 163.991 227.932 161.415 226.432C158.854 224.917 156.877 222.811 155.483 220.114C154.089 217.402 153.392 214.258 153.392 210.682C153.392 207.076 154.089 203.924 155.483 201.227C156.877 198.515 158.854 196.409 161.415 194.909C163.991 193.394 167.044 192.636 170.574 192.636C174.104 192.636 177.15 193.394 179.71 194.909C182.286 196.409 184.271 198.515 185.665 201.227C187.059 203.924 187.756 207.076 187.756 210.682C187.756 214.258 187.059 217.402 185.665 220.114C184.271 222.811 182.286 224.917 179.71 226.432C177.15 227.932 174.104 228.682 170.574 228.682ZM170.619 221.182C172.225 221.182 173.566 220.727 174.642 219.818C175.718 218.894 176.528 217.636 177.074 216.045C177.634 214.455 177.915 212.644 177.915 210.614C177.915 208.583 177.634 206.773 177.074 205.182C176.528 203.591 175.718 202.333 174.642 201.409C173.566 200.485 172.225 200.023 170.619 200.023C168.998 200.023 167.634 200.485 166.528 201.409C165.438 202.333 164.612 203.591 164.051 205.182C163.506 206.773 163.233 208.583 163.233 210.614C163.233 212.644 163.506 214.455 164.051 216.045C164.612 217.636 165.438 218.894 166.528 219.818C167.634 220.727 168.998 221.182 170.619 221.182ZM192.006 228L191.96 220.318H193.119C193.938 220.318 194.642 220.121 195.233 219.727C195.839 219.318 196.339 218.659 196.733 217.75C197.127 216.841 197.438 215.636 197.665 214.136C197.892 212.621 198.044 210.758 198.119 208.545L198.688 193.091H225.233V228H216.006V200.705H207.392L206.847 211.364C206.71 214.288 206.354 216.803 205.778 218.909C205.218 221.015 204.438 222.742 203.438 224.091C202.438 225.424 201.233 226.409 199.824 227.045C198.415 227.682 196.778 228 194.915 228H192.006ZM237.466 241.091C236.239 241.091 235.087 240.992 234.011 240.795C232.951 240.614 232.072 240.379 231.375 240.091L233.557 232.864C234.693 233.212 235.716 233.402 236.625 233.432C237.549 233.462 238.345 233.25 239.011 232.795C239.693 232.341 240.246 231.568 240.67 230.477L241.239 229L228.716 193.091H238.898L246.125 218.727H246.489L253.784 193.091H264.034L250.466 231.773C249.814 233.652 248.928 235.288 247.807 236.682C246.701 238.091 245.299 239.174 243.602 239.932C241.905 240.705 239.86 241.091 237.466 241.091ZM298.347 193.091V228H289.165V193.091H298.347ZM293.869 208.409V216.045C293.127 216.379 292.203 216.697 291.097 217C289.991 217.288 288.831 217.523 287.619 217.705C286.407 217.886 285.271 217.977 284.21 217.977C279.195 217.977 275.248 216.947 272.369 214.886C269.491 212.811 268.051 209.5 268.051 204.955V193.045H277.188V204.955C277.188 206.303 277.415 207.371 277.869 208.159C278.339 208.947 279.081 209.515 280.097 209.864C281.127 210.197 282.498 210.364 284.21 210.364C285.801 210.364 287.362 210.197 288.892 209.864C290.422 209.53 292.081 209.045 293.869 208.409ZM315.818 228.659C313.591 228.659 311.606 228.273 309.864 227.5C308.121 226.712 306.742 225.553 305.727 224.023C304.727 222.477 304.227 220.553 304.227 218.25C304.227 216.311 304.583 214.682 305.295 213.364C306.008 212.045 306.977 210.985 308.205 210.182C309.432 209.379 310.826 208.773 312.386 208.364C313.962 207.955 315.614 207.667 317.341 207.5C319.371 207.288 321.008 207.091 322.25 206.909C323.492 206.712 324.394 206.424 324.955 206.045C325.515 205.667 325.795 205.106 325.795 204.364V204.227C325.795 202.788 325.341 201.674 324.432 200.886C323.538 200.098 322.265 199.705 320.614 199.705C318.871 199.705 317.485 200.091 316.455 200.864C315.424 201.621 314.742 202.576 314.409 203.727L305.455 203C305.909 200.879 306.803 199.045 308.136 197.5C309.47 195.939 311.189 194.742 313.295 193.909C315.417 193.061 317.871 192.636 320.659 192.636C322.598 192.636 324.455 192.864 326.227 193.318C328.015 193.773 329.598 194.477 330.977 195.432C332.371 196.386 333.47 197.614 334.273 199.114C335.076 200.598 335.477 202.379 335.477 204.455V228H326.295V223.159H326.023C325.462 224.25 324.712 225.212 323.773 226.045C322.833 226.864 321.705 227.508 320.386 227.977C319.068 228.432 317.545 228.659 315.818 228.659ZM318.591 221.977C320.015 221.977 321.273 221.697 322.364 221.136C323.455 220.561 324.311 219.788 324.932 218.818C325.553 217.848 325.864 216.75 325.864 215.523V211.818C325.561 212.015 325.144 212.197 324.614 212.364C324.098 212.515 323.515 212.659 322.864 212.795C322.212 212.917 321.561 213.03 320.909 213.136C320.258 213.227 319.667 213.311 319.136 213.386C318 213.553 317.008 213.818 316.159 214.182C315.311 214.545 314.652 215.038 314.182 215.659C313.712 216.265 313.477 217.023 313.477 217.932C313.477 219.25 313.955 220.258 314.909 220.955C315.879 221.636 317.106 221.977 318.591 221.977ZM352.239 215.227L364.807 193.091H374.352V228H365.125V205.795L352.602 228H342.989V193.091H352.239V215.227ZM363.148 180.909H369.898C369.883 183.667 368.86 185.886 366.83 187.568C364.814 189.25 362.087 190.091 358.648 190.091C355.193 190.091 352.458 189.25 350.443 187.568C348.428 185.886 347.42 183.667 347.42 180.909H354.125C354.11 181.955 354.443 182.894 355.125 183.727C355.822 184.561 356.996 184.977 358.648 184.977C360.254 184.977 361.405 184.568 362.102 183.75C362.799 182.932 363.148 181.985 363.148 180.909ZM105.864 305V270.091H136.386V305H127.136V277.705H115V305H105.864ZM159.886 305.682C156.356 305.682 153.303 304.932 150.727 303.432C148.167 301.917 146.189 299.811 144.795 297.114C143.402 294.402 142.705 291.258 142.705 287.682C142.705 284.076 143.402 280.924 144.795 278.227C146.189 275.515 148.167 273.409 150.727 271.909C153.303 270.394 156.356 269.636 159.886 269.636C163.417 269.636 166.462 270.394 169.023 271.909C171.598 273.409 173.583 275.515 174.977 278.227C176.371 280.924 177.068 284.076 177.068 287.682C177.068 291.258 176.371 294.402 174.977 297.114C173.583 299.811 171.598 301.917 169.023 303.432C166.462 304.932 163.417 305.682 159.886 305.682ZM159.932 298.182C161.538 298.182 162.879 297.727 163.955 296.818C165.03 295.894 165.841 294.636 166.386 293.045C166.947 291.455 167.227 289.644 167.227 287.614C167.227 285.583 166.947 283.773 166.386 282.182C165.841 280.591 165.03 279.333 163.955 278.409C162.879 277.485 161.538 277.023 159.932 277.023C158.311 277.023 156.947 277.485 155.841 278.409C154.75 279.333 153.924 280.591 153.364 282.182C152.818 283.773 152.545 285.583 152.545 287.614C152.545 289.644 152.818 291.455 153.364 293.045C153.924 294.636 154.75 295.894 155.841 296.818C156.947 297.727 158.311 298.182 159.932 298.182ZM180.636 315.227V297.318H183.318C184.091 296.833 184.712 296.061 185.182 295C185.667 293.939 186.061 292.689 186.364 291.25C186.682 289.811 186.924 288.258 187.091 286.591C187.273 284.909 187.432 283.212 187.568 281.5L188.477 270.091H215.25V297.318H220.659V315.227H211.432V305H190.091V315.227H180.636ZM192.955 297.318H206.114V277.545H196.705L196.341 281.5C196.083 285.227 195.712 288.394 195.227 291C194.742 293.591 193.985 295.697 192.955 297.318ZM236.256 305.659C234.028 305.659 232.044 305.273 230.301 304.5C228.559 303.712 227.18 302.553 226.165 301.023C225.165 299.477 224.665 297.553 224.665 295.25C224.665 293.311 225.021 291.682 225.733 290.364C226.445 289.045 227.415 287.985 228.642 287.182C229.869 286.379 231.263 285.773 232.824 285.364C234.4 284.955 236.051 284.667 237.778 284.5C239.809 284.288 241.445 284.091 242.688 283.909C243.93 283.712 244.831 283.424 245.392 283.045C245.953 282.667 246.233 282.106 246.233 281.364V281.227C246.233 279.788 245.778 278.674 244.869 277.886C243.975 277.098 242.703 276.705 241.051 276.705C239.309 276.705 237.922 277.091 236.892 277.864C235.862 278.621 235.18 279.576 234.847 280.727L225.892 280C226.347 277.879 227.241 276.045 228.574 274.5C229.907 272.939 231.627 271.742 233.733 270.909C235.854 270.061 238.309 269.636 241.097 269.636C243.036 269.636 244.892 269.864 246.665 270.318C248.453 270.773 250.036 271.477 251.415 272.432C252.809 273.386 253.907 274.614 254.71 276.114C255.513 277.598 255.915 279.379 255.915 281.455V305H246.733V300.159H246.46C245.9 301.25 245.15 302.212 244.21 303.045C243.271 303.864 242.142 304.508 240.824 304.977C239.506 305.432 237.983 305.659 236.256 305.659ZM239.028 298.977C240.453 298.977 241.71 298.697 242.801 298.136C243.892 297.561 244.748 296.788 245.369 295.818C245.991 294.848 246.301 293.75 246.301 292.523V288.818C245.998 289.015 245.581 289.197 245.051 289.364C244.536 289.515 243.953 289.659 243.301 289.795C242.65 289.917 241.998 290.03 241.347 290.136C240.695 290.227 240.104 290.311 239.574 290.386C238.438 290.553 237.445 290.818 236.597 291.182C235.748 291.545 235.089 292.038 234.619 292.659C234.15 293.265 233.915 294.023 233.915 294.932C233.915 296.25 234.392 297.258 235.347 297.955C236.316 298.636 237.544 298.977 239.028 298.977ZM263.426 318.091V270.091H272.972V275.955H273.403C273.828 275.015 274.441 274.061 275.244 273.091C276.063 272.106 277.123 271.288 278.426 270.636C279.744 269.97 281.381 269.636 283.335 269.636C285.881 269.636 288.229 270.303 290.381 271.636C292.532 272.955 294.252 274.947 295.54 277.614C296.828 280.265 297.472 283.591 297.472 287.591C297.472 291.485 296.843 294.773 295.585 297.455C294.343 300.121 292.646 302.144 290.494 303.523C288.358 304.886 285.964 305.568 283.312 305.568C281.434 305.568 279.835 305.258 278.517 304.636C277.214 304.015 276.146 303.235 275.312 302.295C274.479 301.341 273.843 300.379 273.403 299.409H273.108V318.091H263.426ZM272.903 287.545C272.903 289.621 273.191 291.432 273.767 292.977C274.343 294.523 275.176 295.727 276.267 296.591C277.358 297.439 278.684 297.864 280.244 297.864C281.82 297.864 283.153 297.432 284.244 296.568C285.335 295.689 286.161 294.477 286.722 292.932C287.297 291.371 287.585 289.576 287.585 287.545C287.585 285.53 287.305 283.758 286.744 282.227C286.184 280.697 285.358 279.5 284.267 278.636C283.176 277.773 281.835 277.341 280.244 277.341C278.669 277.341 277.335 277.758 276.244 278.591C275.169 279.424 274.343 280.606 273.767 282.136C273.191 283.667 272.903 285.47 272.903 287.545ZM303.926 305V270.091H313.608V283.636H316.335L325.835 270.091H337.199L324.858 287.409L337.335 305H325.835L317.222 292.614H313.608V305H303.926ZM350.676 292.227L363.244 270.091H372.79V305H363.562V282.795L351.04 305H341.426V270.091H350.676V292.227Z" fill="black"/>
</svg>
