<svg width="590" height="410" viewBox="0 0 590 410" fill="none" xmlns="http://www.w3.org/2000/svg">
<rect width="590" height="410" rx="50" fill="white"/>
<path d="M122.818 127.727C122.818 132.803 121.856 137.121 119.932 140.682C118.023 144.242 115.417 146.962 112.114 148.841C108.826 150.705 105.129 151.636 101.023 151.636C96.8864 151.636 93.1742 150.697 89.8864 148.818C86.5985 146.939 84 144.22 82.0909 140.659C80.1818 137.098 79.2273 132.788 79.2273 127.727C79.2273 122.652 80.1818 118.333 82.0909 114.773C84 111.212 86.5985 108.5 89.8864 106.636C93.1742 104.758 96.8864 103.818 101.023 103.818C105.129 103.818 108.826 104.758 112.114 106.636C115.417 108.5 118.023 111.212 119.932 114.773C121.856 118.333 122.818 122.652 122.818 127.727ZM112.841 127.727C112.841 124.439 112.348 121.667 111.364 119.409C110.394 117.152 109.023 115.439 107.25 114.273C105.477 113.106 103.402 112.523 101.023 112.523C98.6439 112.523 96.5682 113.106 94.7955 114.273C93.0227 115.439 91.6439 117.152 90.6591 119.409C89.6894 121.667 89.2045 124.439 89.2045 127.727C89.2045 131.015 89.6894 133.788 90.6591 136.045C91.6439 138.303 93.0227 140.015 94.7955 141.182C96.5682 142.348 98.6439 142.932 101.023 142.932C103.402 142.932 105.477 142.348 107.25 141.182C109.023 140.015 110.394 138.303 111.364 136.045C112.348 133.788 112.841 131.015 112.841 127.727ZM128.108 123.705V116.091H159.744V123.705H148.494V151H139.267V123.705H128.108ZM186.25 140.295L195.705 116.091H203.068L189.455 151H183.023L169.727 116.091H177.068L186.25 140.295ZM174.864 116.091V151H165.614V116.091H174.864ZM198.114 151V116.091H207.25V151H198.114ZM230.648 151.682C227.057 151.682 223.966 150.955 221.375 149.5C218.799 148.03 216.814 145.955 215.42 143.273C214.027 140.576 213.33 137.386 213.33 133.705C213.33 130.114 214.027 126.962 215.42 124.25C216.814 121.538 218.777 119.424 221.307 117.909C223.852 116.394 226.837 115.636 230.261 115.636C232.564 115.636 234.708 116.008 236.693 116.75C238.693 117.477 240.436 118.576 241.92 120.045C243.42 121.515 244.587 123.364 245.42 125.591C246.254 127.803 246.67 130.394 246.67 133.364V136.023H217.193V130.023H237.557C237.557 128.629 237.254 127.394 236.648 126.318C236.042 125.242 235.201 124.402 234.125 123.795C233.064 123.174 231.83 122.864 230.42 122.864C228.951 122.864 227.648 123.205 226.511 123.886C225.39 124.553 224.511 125.455 223.875 126.591C223.239 127.712 222.913 128.962 222.898 130.341V136.045C222.898 137.773 223.216 139.265 223.852 140.523C224.504 141.78 225.42 142.75 226.602 143.432C227.784 144.114 229.186 144.455 230.807 144.455C231.883 144.455 232.867 144.303 233.761 144C234.655 143.697 235.42 143.242 236.057 142.636C236.693 142.03 237.178 141.288 237.511 140.409L246.466 141C246.011 143.152 245.08 145.03 243.67 146.636C242.277 148.227 240.473 149.47 238.261 150.364C236.064 151.242 233.527 151.682 230.648 151.682ZM283.284 116.091V151H274.102V116.091H283.284ZM278.807 131.409V139.045C278.064 139.379 277.14 139.697 276.034 140C274.928 140.288 273.769 140.523 272.557 140.705C271.345 140.886 270.208 140.977 269.148 140.977C264.133 140.977 260.186 139.947 257.307 137.886C254.428 135.811 252.989 132.5 252.989 127.955V116.045H262.125V127.955C262.125 129.303 262.352 130.371 262.807 131.159C263.277 131.947 264.019 132.515 265.034 132.864C266.064 133.197 267.436 133.364 269.148 133.364C270.739 133.364 272.299 133.197 273.83 132.864C275.36 132.53 277.019 132.045 278.807 131.409ZM300.756 151.659C298.528 151.659 296.544 151.273 294.801 150.5C293.059 149.712 291.68 148.553 290.665 147.023C289.665 145.477 289.165 143.553 289.165 141.25C289.165 139.311 289.521 137.682 290.233 136.364C290.945 135.045 291.915 133.985 293.142 133.182C294.369 132.379 295.763 131.773 297.324 131.364C298.9 130.955 300.551 130.667 302.278 130.5C304.309 130.288 305.945 130.091 307.188 129.909C308.43 129.712 309.331 129.424 309.892 129.045C310.453 128.667 310.733 128.106 310.733 127.364V127.227C310.733 125.788 310.278 124.674 309.369 123.886C308.475 123.098 307.203 122.705 305.551 122.705C303.809 122.705 302.422 123.091 301.392 123.864C300.362 124.621 299.68 125.576 299.347 126.727L290.392 126C290.847 123.879 291.741 122.045 293.074 120.5C294.407 118.939 296.127 117.742 298.233 116.909C300.354 116.061 302.809 115.636 305.597 115.636C307.536 115.636 309.392 115.864 311.165 116.318C312.953 116.773 314.536 117.477 315.915 118.432C317.309 119.386 318.407 120.614 319.21 122.114C320.013 123.598 320.415 125.379 320.415 127.455V151H311.233V146.159H310.96C310.4 147.25 309.65 148.212 308.71 149.045C307.771 149.864 306.642 150.508 305.324 150.977C304.006 151.432 302.483 151.659 300.756 151.659ZM303.528 144.977C304.953 144.977 306.21 144.697 307.301 144.136C308.392 143.561 309.248 142.788 309.869 141.818C310.491 140.848 310.801 139.75 310.801 138.523V134.818C310.498 135.015 310.081 135.197 309.551 135.364C309.036 135.515 308.453 135.659 307.801 135.795C307.15 135.917 306.498 136.03 305.847 136.136C305.195 136.227 304.604 136.311 304.074 136.386C302.938 136.553 301.945 136.818 301.097 137.182C300.248 137.545 299.589 138.038 299.119 138.659C298.65 139.265 298.415 140.023 298.415 140.932C298.415 142.25 298.892 143.258 299.847 143.955C300.816 144.636 302.044 144.977 303.528 144.977ZM337.176 138.227L349.744 116.091H359.29V151H350.062V128.795L337.54 151H327.926V116.091H337.176V138.227ZM348.085 103.909H354.835C354.82 106.667 353.797 108.886 351.767 110.568C349.752 112.25 347.025 113.091 343.585 113.091C340.131 113.091 337.396 112.25 335.381 110.568C333.366 108.886 332.358 106.667 332.358 103.909H339.062C339.047 104.955 339.381 105.894 340.062 106.727C340.759 107.561 341.934 107.977 343.585 107.977C345.191 107.977 346.343 107.568 347.04 106.75C347.737 105.932 348.085 104.985 348.085 103.909ZM372.71 151.591C371.21 151.591 369.922 151.061 368.847 150C367.786 148.924 367.256 147.636 367.256 146.136C367.256 144.652 367.786 143.379 368.847 142.318C369.922 141.258 371.21 140.727 372.71 140.727C374.165 140.727 375.438 141.258 376.528 142.318C377.619 143.379 378.165 144.652 378.165 146.136C378.165 147.136 377.907 148.053 377.392 148.886C376.892 149.705 376.233 150.364 375.415 150.864C374.597 151.348 373.695 151.591 372.71 151.591Z" fill="black" fill-opacity="0.5"/>
<path d="M80.0455 181.455H92.1818L105 212.727H105.545L118.364 181.455H130.5V228H120.955V197.705H120.568L108.523 227.773H102.023L89.9773 197.591H89.5909V228H80.0455V181.455ZM144.494 203.818H154.926C159.547 203.818 163.153 204.924 165.744 207.136C168.335 209.333 169.631 212.273 169.631 215.955C169.631 218.348 169.047 220.455 167.881 222.273C166.714 224.076 165.032 225.485 162.835 226.5C160.638 227.5 158.002 228 154.926 228H138.426V193.091H147.676V220.386H154.926C156.547 220.386 157.881 219.977 158.926 219.159C159.972 218.341 160.502 217.295 160.517 216.023C160.502 214.674 159.972 213.576 158.926 212.727C157.881 211.864 156.547 211.432 154.926 211.432H144.494V203.818ZM173.381 228V193.091H183.062V228H173.381ZM205.614 228V193.091H236.136V228H226.886V200.705H214.75V228H205.614ZM259.636 228.682C256.106 228.682 253.053 227.932 250.477 226.432C247.917 224.917 245.939 222.811 244.545 220.114C243.152 217.402 242.455 214.258 242.455 210.682C242.455 207.076 243.152 203.924 244.545 201.227C245.939 198.515 247.917 196.409 250.477 194.909C253.053 193.394 256.106 192.636 259.636 192.636C263.167 192.636 266.212 193.394 268.773 194.909C271.348 196.409 273.333 198.515 274.727 201.227C276.121 203.924 276.818 207.076 276.818 210.682C276.818 214.258 276.121 217.402 274.727 220.114C273.333 222.811 271.348 224.917 268.773 226.432C266.212 227.932 263.167 228.682 259.636 228.682ZM259.682 221.182C261.288 221.182 262.629 220.727 263.705 219.818C264.78 218.894 265.591 217.636 266.136 216.045C266.697 214.455 266.977 212.644 266.977 210.614C266.977 208.583 266.697 206.773 266.136 205.182C265.591 203.591 264.78 202.333 263.705 201.409C262.629 200.485 261.288 200.023 259.682 200.023C258.061 200.023 256.697 200.485 255.591 201.409C254.5 202.333 253.674 203.591 253.114 205.182C252.568 206.773 252.295 208.583 252.295 210.614C252.295 212.644 252.568 214.455 253.114 216.045C253.674 217.636 254.5 218.894 255.591 219.818C256.697 220.727 258.061 221.182 259.682 221.182ZM298.886 228.682C295.311 228.682 292.235 227.924 289.659 226.409C287.098 224.879 285.129 222.758 283.75 220.045C282.386 217.333 281.705 214.212 281.705 210.682C281.705 207.106 282.394 203.97 283.773 201.273C285.167 198.561 287.144 196.447 289.705 194.932C292.265 193.402 295.311 192.636 298.841 192.636C301.886 192.636 304.553 193.189 306.841 194.295C309.129 195.402 310.939 196.955 312.273 198.955C313.606 200.955 314.341 203.303 314.477 206H305.341C305.083 204.258 304.402 202.856 303.295 201.795C302.205 200.72 300.773 200.182 299 200.182C297.5 200.182 296.189 200.591 295.068 201.409C293.962 202.212 293.098 203.386 292.477 204.932C291.856 206.477 291.545 208.348 291.545 210.545C291.545 212.773 291.848 214.667 292.455 216.227C293.076 217.788 293.947 218.977 295.068 219.795C296.189 220.614 297.5 221.023 299 221.023C300.106 221.023 301.098 220.795 301.977 220.341C302.871 219.886 303.606 219.227 304.182 218.364C304.773 217.485 305.159 216.432 305.341 215.205H314.477C314.326 217.871 313.598 220.22 312.295 222.25C311.008 224.265 309.227 225.841 306.955 226.977C304.682 228.114 301.992 228.682 298.886 228.682ZM318.295 200.705V193.091H349.932V200.705H338.682V228H329.455V200.705H318.295ZM364.506 228.659C362.278 228.659 360.294 228.273 358.551 227.5C356.809 226.712 355.43 225.553 354.415 224.023C353.415 222.477 352.915 220.553 352.915 218.25C352.915 216.311 353.271 214.682 353.983 213.364C354.695 212.045 355.665 210.985 356.892 210.182C358.119 209.379 359.513 208.773 361.074 208.364C362.65 207.955 364.301 207.667 366.028 207.5C368.059 207.288 369.695 207.091 370.938 206.909C372.18 206.712 373.081 206.424 373.642 206.045C374.203 205.667 374.483 205.106 374.483 204.364V204.227C374.483 202.788 374.028 201.674 373.119 200.886C372.225 200.098 370.953 199.705 369.301 199.705C367.559 199.705 366.172 200.091 365.142 200.864C364.112 201.621 363.43 202.576 363.097 203.727L354.142 203C354.597 200.879 355.491 199.045 356.824 197.5C358.157 195.939 359.877 194.742 361.983 193.909C364.104 193.061 366.559 192.636 369.347 192.636C371.286 192.636 373.142 192.864 374.915 193.318C376.703 193.773 378.286 194.477 379.665 195.432C381.059 196.386 382.157 197.614 382.96 199.114C383.763 200.598 384.165 202.379 384.165 204.455V228H374.983V223.159H374.71C374.15 224.25 373.4 225.212 372.46 226.045C371.521 226.864 370.392 227.508 369.074 227.977C367.756 228.432 366.233 228.659 364.506 228.659ZM367.278 221.977C368.703 221.977 369.96 221.697 371.051 221.136C372.142 220.561 372.998 219.788 373.619 218.818C374.241 217.848 374.551 216.75 374.551 215.523V211.818C374.248 212.015 373.831 212.197 373.301 212.364C372.786 212.515 372.203 212.659 371.551 212.795C370.9 212.917 370.248 213.03 369.597 213.136C368.945 213.227 368.354 213.311 367.824 213.386C366.688 213.553 365.695 213.818 364.847 214.182C363.998 214.545 363.339 215.038 362.869 215.659C362.4 216.265 362.165 217.023 362.165 217.932C362.165 219.25 362.642 220.258 363.597 220.955C364.566 221.636 365.794 221.977 367.278 221.977ZM391.676 228V193.091H406.562C410.866 193.091 414.267 193.909 416.767 195.545C419.267 197.182 420.517 199.508 420.517 202.523C420.517 204.417 419.813 205.992 418.403 207.25C416.994 208.508 415.04 209.356 412.54 209.795C414.631 209.947 416.411 210.424 417.881 211.227C419.366 212.015 420.494 213.038 421.267 214.295C422.055 215.553 422.449 216.947 422.449 218.477C422.449 220.462 421.919 222.167 420.858 223.591C419.813 225.015 418.275 226.106 416.244 226.864C414.229 227.621 411.767 228 408.858 228H391.676ZM400.699 220.75H408.858C410.206 220.75 411.259 220.432 412.017 219.795C412.79 219.144 413.176 218.258 413.176 217.136C413.176 215.894 412.79 214.917 412.017 214.205C411.259 213.492 410.206 213.136 408.858 213.136H400.699V220.75ZM400.699 207.455H406.767C407.737 207.455 408.563 207.318 409.244 207.045C409.941 206.758 410.472 206.348 410.835 205.818C411.214 205.288 411.403 204.659 411.403 203.932C411.403 202.856 410.972 202.015 410.108 201.409C409.244 200.803 408.062 200.5 406.562 200.5H400.699V207.455ZM437.801 215.227L450.369 193.091H459.915V228H450.688V205.795L438.165 228H428.551V193.091H437.801V215.227ZM488.312 217.295L497.767 193.091H505.131L491.517 228H485.085L471.79 193.091H479.131L488.312 217.295ZM476.926 193.091V228H467.676V193.091H476.926ZM500.176 228V193.091H509.312V228H500.176ZM78.0455 277.705V270.091H109.682V277.705H98.4318V305H89.2045V277.705H78.0455ZM130.21 305.682C126.619 305.682 123.528 304.955 120.938 303.5C118.362 302.03 116.377 299.955 114.983 297.273C113.589 294.576 112.892 291.386 112.892 287.705C112.892 284.114 113.589 280.962 114.983 278.25C116.377 275.538 118.339 273.424 120.869 271.909C123.415 270.394 126.4 269.636 129.824 269.636C132.127 269.636 134.271 270.008 136.256 270.75C138.256 271.477 139.998 272.576 141.483 274.045C142.983 275.515 144.15 277.364 144.983 279.591C145.816 281.803 146.233 284.394 146.233 287.364V290.023H116.756V284.023H137.119C137.119 282.629 136.816 281.394 136.21 280.318C135.604 279.242 134.763 278.402 133.688 277.795C132.627 277.174 131.392 276.864 129.983 276.864C128.513 276.864 127.21 277.205 126.074 277.886C124.953 278.553 124.074 279.455 123.438 280.591C122.801 281.712 122.475 282.962 122.46 284.341V290.045C122.46 291.773 122.778 293.265 123.415 294.523C124.066 295.78 124.983 296.75 126.165 297.432C127.347 298.114 128.748 298.455 130.369 298.455C131.445 298.455 132.43 298.303 133.324 298C134.218 297.697 134.983 297.242 135.619 296.636C136.256 296.03 136.741 295.288 137.074 294.409L146.028 295C145.574 297.152 144.642 299.03 143.233 300.636C141.839 302.227 140.036 303.47 137.824 304.364C135.627 305.242 133.089 305.682 130.21 305.682ZM152.551 318.091V270.091H162.097V275.955H162.528C162.953 275.015 163.566 274.061 164.369 273.091C165.188 272.106 166.248 271.288 167.551 270.636C168.869 269.97 170.506 269.636 172.46 269.636C175.006 269.636 177.354 270.303 179.506 271.636C181.657 272.955 183.377 274.947 184.665 277.614C185.953 280.265 186.597 283.591 186.597 287.591C186.597 291.485 185.968 294.773 184.71 297.455C183.468 300.121 181.771 302.144 179.619 303.523C177.483 304.886 175.089 305.568 172.438 305.568C170.559 305.568 168.96 305.258 167.642 304.636C166.339 304.015 165.271 303.235 164.438 302.295C163.604 301.341 162.968 300.379 162.528 299.409H162.233V318.091H152.551ZM162.028 287.545C162.028 289.621 162.316 291.432 162.892 292.977C163.468 294.523 164.301 295.727 165.392 296.591C166.483 297.439 167.809 297.864 169.369 297.864C170.945 297.864 172.278 297.432 173.369 296.568C174.46 295.689 175.286 294.477 175.847 292.932C176.422 291.371 176.71 289.576 176.71 287.545C176.71 285.53 176.43 283.758 175.869 282.227C175.309 280.697 174.483 279.5 173.392 278.636C172.301 277.773 170.96 277.341 169.369 277.341C167.794 277.341 166.46 277.758 165.369 278.591C164.294 279.424 163.468 280.606 162.892 282.136C162.316 283.667 162.028 285.47 162.028 287.545ZM213.688 294.295L223.142 270.091H230.506L216.892 305H210.46L197.165 270.091H204.506L213.688 294.295ZM202.301 270.091V305H193.051V270.091H202.301ZM225.551 305V270.091H234.688V305H225.551ZM251.426 292.227L263.994 270.091H273.54V305H264.312V282.795L251.79 305H242.176V270.091H251.426V292.227ZM305.597 283.682V291.295H287.369V283.682H305.597ZM290.551 270.091V305H281.301V270.091H290.551ZM311.665 270.091V305H302.483V270.091H311.665ZM329.131 305.659C326.903 305.659 324.919 305.273 323.176 304.5C321.434 303.712 320.055 302.553 319.04 301.023C318.04 299.477 317.54 297.553 317.54 295.25C317.54 293.311 317.896 291.682 318.608 290.364C319.32 289.045 320.29 287.985 321.517 287.182C322.744 286.379 324.138 285.773 325.699 285.364C327.275 284.955 328.926 284.667 330.653 284.5C332.684 284.288 334.32 284.091 335.562 283.909C336.805 283.712 337.706 283.424 338.267 283.045C338.828 282.667 339.108 282.106 339.108 281.364V281.227C339.108 279.788 338.653 278.674 337.744 277.886C336.85 277.098 335.578 276.705 333.926 276.705C332.184 276.705 330.797 277.091 329.767 277.864C328.737 278.621 328.055 279.576 327.722 280.727L318.767 280C319.222 277.879 320.116 276.045 321.449 274.5C322.782 272.939 324.502 271.742 326.608 270.909C328.729 270.061 331.184 269.636 333.972 269.636C335.911 269.636 337.767 269.864 339.54 270.318C341.328 270.773 342.911 271.477 344.29 272.432C345.684 273.386 346.782 274.614 347.585 276.114C348.388 277.598 348.79 279.379 348.79 281.455V305H339.608V300.159H339.335C338.775 301.25 338.025 302.212 337.085 303.045C336.146 303.864 335.017 304.508 333.699 304.977C332.381 305.432 330.858 305.659 329.131 305.659ZM331.903 298.977C333.328 298.977 334.585 298.697 335.676 298.136C336.767 297.561 337.623 296.788 338.244 295.818C338.866 294.848 339.176 293.75 339.176 292.523V288.818C338.873 289.015 338.456 289.197 337.926 289.364C337.411 289.515 336.828 289.659 336.176 289.795C335.525 289.917 334.873 290.03 334.222 290.136C333.57 290.227 332.979 290.311 332.449 290.386C331.313 290.553 330.32 290.818 329.472 291.182C328.623 291.545 327.964 292.038 327.494 292.659C327.025 293.265 326.79 294.023 326.79 294.932C326.79 296.25 327.267 297.258 328.222 297.955C329.191 298.636 330.419 298.977 331.903 298.977ZM354.256 305L354.21 297.318H355.369C356.188 297.318 356.892 297.121 357.483 296.727C358.089 296.318 358.589 295.659 358.983 294.75C359.377 293.841 359.688 292.636 359.915 291.136C360.142 289.621 360.294 287.758 360.369 285.545L360.938 270.091H387.483V305H378.256V277.705H369.642L369.097 288.364C368.96 291.288 368.604 293.803 368.028 295.909C367.468 298.015 366.688 299.742 365.688 301.091C364.688 302.424 363.483 303.409 362.074 304.045C360.665 304.682 359.028 305 357.165 305H354.256Z" fill="black"/>
</svg>
