<svg width="224" height="24" viewBox="0 0 224 24" fill="none" xmlns="http://www.w3.org/2000/svg">
<g clip-path="url(#clip0_54_577)">
<path d="M24 12C24 5.37258 18.6274 0 12 0C5.37258 0 0 5.37258 0 12C0 17.9895 4.3882 22.954 10.125 23.8542V15.4688H7.07812V12H10.125V9.35625C10.125 6.34875 11.9166 4.6875 14.6576 4.6875C15.9701 4.6875 17.3438 4.92188 17.3438 4.92188V7.875H15.8306C14.34 7.875 13.875 8.80008 13.875 9.75V12H17.2031L16.6711 15.4688H13.875V23.8542C19.6118 22.954 24 17.9895 24 12Z" fill="white"/>
</g>
<path d="M47.5502 21.7502C56.6045 21.7502 61.5583 14.2469 61.5583 7.74211C61.5583 7.53117 61.5536 7.31554 61.5442 7.1046C62.5079 6.40771 63.3395 5.5445 64 4.55554C63.1025 4.95484 62.1496 5.21563 61.1739 5.32898C62.2013 4.71315 62.9705 3.74572 63.3391 2.60601C62.3726 3.1788 61.3156 3.58286 60.2134 3.80085C59.4708 3.01181 58.489 2.48936 57.4197 2.3143C56.3504 2.13923 55.2532 2.32129 54.2977 2.83234C53.3423 3.34339 52.5818 4.15495 52.1338 5.14156C51.6859 6.12816 51.5754 7.23486 51.8195 8.29054C49.8625 8.19233 47.9479 7.68395 46.2 6.79834C44.452 5.91274 42.9097 4.66968 41.673 3.14976C41.0444 4.23349 40.8521 5.51589 41.135 6.73634C41.418 7.95678 42.1551 9.02369 43.1964 9.72023C42.4146 9.69541 41.65 9.48492 40.9656 9.10617V9.1671C40.9649 10.3044 41.3581 11.4068 42.0783 12.287C42.7985 13.1672 43.8013 13.7708 44.9162 13.9952C44.1921 14.1934 43.432 14.2222 42.6948 14.0796C43.0095 15.0577 43.6216 15.9131 44.4458 16.5266C45.27 17.14 46.2651 17.4808 47.2923 17.5015C45.5484 18.8714 43.3942 19.6144 41.1766 19.6109C40.7833 19.6103 40.3904 19.5861 40 19.5387C42.2529 20.984 44.8735 21.7516 47.5502 21.7502Z" fill="white"/>
<g clip-path="url(#clip1_54_577)">
<path d="M92 2.16094C95.2063 2.16094 95.5859 2.175 96.8469 2.23125C98.0188 2.28281 98.6516 2.47969 99.0734 2.64375C99.6313 2.85938 100.034 3.12188 100.452 3.53906C100.873 3.96094 101.131 4.35938 101.347 4.91719C101.511 5.33906 101.708 5.97656 101.759 7.14375C101.816 8.40937 101.83 8.78906 101.83 11.9906C101.83 15.1969 101.816 15.5766 101.759 16.8375C101.708 18.0094 101.511 18.6422 101.347 19.0641C101.131 19.6219 100.869 20.025 100.452 20.4422C100.03 20.8641 99.6313 21.1219 99.0734 21.3375C98.6516 21.5016 98.0141 21.6984 96.8469 21.75C95.5813 21.8062 95.2016 21.8203 92 21.8203C88.7938 21.8203 88.4141 21.8062 87.1531 21.75C85.9813 21.6984 85.3484 21.5016 84.9266 21.3375C84.3688 21.1219 83.9656 20.8594 83.5484 20.4422C83.1266 20.0203 82.8688 19.6219 82.6531 19.0641C82.4891 18.6422 82.2922 18.0047 82.2406 16.8375C82.1844 15.5719 82.1703 15.1922 82.1703 11.9906C82.1703 8.78438 82.1844 8.40469 82.2406 7.14375C82.2922 5.97187 82.4891 5.33906 82.6531 4.91719C82.8688 4.35938 83.1313 3.95625 83.5484 3.53906C83.9703 3.11719 84.3688 2.85938 84.9266 2.64375C85.3484 2.47969 85.9859 2.28281 87.1531 2.23125C88.4141 2.175 88.7938 2.16094 92 2.16094ZM92 0C88.7422 0 88.3344 0.0140625 87.0547 0.0703125C85.7797 0.126563 84.9031 0.332812 84.1438 0.628125C83.3516 0.9375 82.6813 1.34531 82.0156 2.01562C81.3453 2.68125 80.9375 3.35156 80.6281 4.13906C80.3328 4.90313 80.1266 5.775 80.0703 7.05C80.0141 8.33437 80 8.74219 80 12C80 15.2578 80.0141 15.6656 80.0703 16.9453C80.1266 18.2203 80.3328 19.0969 80.6281 19.8563C80.9375 20.6484 81.3453 21.3188 82.0156 21.9844C82.6813 22.65 83.3516 23.0625 84.1391 23.3672C84.9031 23.6625 85.775 23.8687 87.05 23.925C88.3297 23.9812 88.7375 23.9953 91.9953 23.9953C95.2531 23.9953 95.6609 23.9812 96.9406 23.925C98.2156 23.8687 99.0922 23.6625 99.8516 23.3672C100.639 23.0625 101.309 22.65 101.975 21.9844C102.641 21.3188 103.053 20.6484 103.358 19.8609C103.653 19.0969 103.859 18.225 103.916 16.95C103.972 15.6703 103.986 15.2625 103.986 12.0047C103.986 8.74688 103.972 8.33906 103.916 7.05938C103.859 5.78438 103.653 4.90781 103.358 4.14844C103.062 3.35156 102.655 2.68125 101.984 2.01562C101.319 1.35 100.648 0.9375 99.8609 0.632812C99.0969 0.3375 98.225 0.13125 96.95 0.075C95.6656 0.0140625 95.2578 0 92 0Z" fill="white"/>
<path d="M92 5.83594C88.5969 5.83594 85.8359 8.59688 85.8359 12C85.8359 15.4031 88.5969 18.1641 92 18.1641C95.4031 18.1641 98.1641 15.4031 98.1641 12C98.1641 8.59688 95.4031 5.83594 92 5.83594ZM92 15.9984C89.7922 15.9984 88.0016 14.2078 88.0016 12C88.0016 9.79219 89.7922 8.00156 92 8.00156C94.2078 8.00156 95.9984 9.79219 95.9984 12C95.9984 14.2078 94.2078 15.9984 92 15.9984Z" fill="white"/>
<path d="M99.8469 5.59238C99.8469 6.38926 99.2 7.03145 98.4078 7.03145C97.6109 7.03145 96.9688 6.38457 96.9688 5.59238C96.9688 4.79551 97.6156 4.15332 98.4078 4.15332C99.2 4.15332 99.8469 4.8002 99.8469 5.59238Z" fill="white"/>
</g>
<g clip-path="url(#clip2_54_577)">
<path d="M142.223 0H121.772C120.792 0 120 0.773438 120 1.72969V22.2656C120 23.2219 120.792 24 121.772 24H142.223C143.203 24 144 23.2219 144 22.2703V1.72969C144 0.773438 143.203 0 142.223 0ZM127.12 20.4516H123.558V8.99531H127.12V20.4516ZM125.339 7.43438C124.195 7.43438 123.272 6.51094 123.272 5.37187C123.272 4.23281 124.195 3.30937 125.339 3.30937C126.478 3.30937 127.402 4.23281 127.402 5.37187C127.402 6.50625 126.478 7.43438 125.339 7.43438ZM140.452 20.4516H136.894V14.8828C136.894 13.5562 136.87 11.8453 135.042 11.8453C133.191 11.8453 132.909 13.2937 132.909 14.7891V20.4516H129.356V8.99531H132.769V10.5609H132.816C133.289 9.66094 134.452 8.70938 136.181 8.70938C139.786 8.70938 140.452 11.0813 140.452 14.1656V20.4516Z" fill="white"/>
</g>
<path d="M183.761 7.1998C183.761 7.1998 183.527 5.54512 182.805 4.81855C181.891 3.8623 180.869 3.85762 180.4 3.80137C177.044 3.55762 172.005 3.55762 172.005 3.55762H171.995C171.995 3.55762 166.956 3.55762 163.6 3.80137C163.131 3.85762 162.109 3.8623 161.195 4.81855C160.473 5.54512 160.244 7.1998 160.244 7.1998C160.244 7.1998 160 9.14512 160 11.0857V12.9045C160 14.8451 160.239 16.7904 160.239 16.7904C160.239 16.7904 160.473 18.4451 161.191 19.1717C162.105 20.1279 163.305 20.0951 163.839 20.1982C165.761 20.3811 172 20.4373 172 20.4373C172 20.4373 177.044 20.4279 180.4 20.1889C180.869 20.1326 181.891 20.1279 182.805 19.1717C183.527 18.4451 183.761 16.7904 183.761 16.7904C183.761 16.7904 184 14.8498 184 12.9045V11.0857C184 9.14512 183.761 7.1998 183.761 7.1998ZM169.52 15.1123V8.36699L176.003 11.7514L169.52 15.1123Z" fill="white"/>
<g clip-path="url(#clip3_54_577)">
<path fill-rule="evenodd" clip-rule="evenodd" d="M224 12C224 18.6274 218.627 24 212 24C205.373 24 200 18.6274 200 12C200 5.37258 205.373 0 212 0C218.627 0 224 5.37258 224 12ZM212.43 8.85893C211.263 9.3444 208.93 10.3492 205.432 11.8733C204.864 12.0992 204.566 12.3202 204.539 12.5363C204.493 12.9015 204.951 13.0453 205.573 13.2411C205.658 13.2678 205.746 13.2954 205.836 13.3246C206.449 13.5238 207.273 13.7568 207.701 13.766C208.09 13.7744 208.524 13.6142 209.003 13.2853C212.271 11.079 213.958 9.96381 214.064 9.93977C214.139 9.92281 214.243 9.90148 214.313 9.96385C214.383 10.0262 214.376 10.1443 214.369 10.176C214.323 10.3691 212.528 12.0381 211.599 12.9018C211.309 13.171 211.104 13.362 211.062 13.4056C210.968 13.5033 210.872 13.5958 210.78 13.6846C210.211 14.2333 209.784 14.6448 210.804 15.3168C211.294 15.6397 211.686 15.9067 212.077 16.1731C212.504 16.4641 212.93 16.7543 213.482 17.1157C213.622 17.2077 213.756 17.3034 213.887 17.3965C214.384 17.751 214.831 18.0694 215.383 18.0186C215.703 17.9891 216.034 17.6876 216.203 16.7884C216.6 14.6631 217.382 10.0585 217.562 8.16097C217.578 7.99473 217.558 7.78197 217.542 7.68857C217.526 7.59518 217.493 7.46211 217.371 7.3636C217.228 7.24694 217.006 7.22234 216.906 7.22408C216.455 7.23203 215.763 7.47282 212.43 8.85893Z" fill="white"/>
</g>
<defs>
<clipPath id="clip0_54_577">
<rect width="24" height="24" fill="white"/>
</clipPath>
<clipPath id="clip1_54_577">
<rect width="24" height="24" fill="white" transform="translate(80)"/>
</clipPath>
<clipPath id="clip2_54_577">
<rect width="24" height="24" fill="white" transform="translate(120)"/>
</clipPath>
<clipPath id="clip3_54_577">
<rect width="24" height="24" fill="white" transform="translate(200)"/>
</clipPath>
</defs>
</svg>
